<svg xmlns="http://www.w3.org/2000/svg" xmlns:xlink="http://www.w3.org/1999/xlink" width="500" zoomAndPan="magnify" viewBox="0 0 375 374.999991" height="500" preserveAspectRatio="xMidYMid meet" version="1.2"><defs><clipPath id="cc7b8ae0de"><path d="M 61.894531 10.4375 L 368.644531 10.4375 L 368.644531 317.1875 L 61.894531 317.1875 Z M 61.894531 10.4375 "/></clipPath><clipPath id="0ecaae85cd"><path d="M 215.269531 10.4375 C 130.5625 10.4375 61.894531 79.105469 61.894531 163.8125 C 61.894531 248.519531 130.5625 317.1875 215.269531 317.1875 C 299.976562 317.1875 368.644531 248.519531 368.644531 163.8125 C 368.644531 79.105469 299.976562 10.4375 215.269531 10.4375 Z M 215.269531 10.4375 "/></clipPath></defs><g id="8236378e07"><g clip-rule="nonzero" clip-path="url(#cc7b8ae0de)"><g clip-rule="nonzero" clip-path="url(#0ecaae85cd)"><path style="fill:none;stroke-width:40;stroke-linecap:butt;stroke-linejoin:miter;stroke:#000000;stroke-opacity:1;stroke-miterlimit:4;" d="M 204.498473 0.00200454 C 91.555765 0.00200454 -0.00152691 91.559296 -0.00152691 204.502005 C -0.00152691 317.444713 91.555765 409.002005 204.498473 409.002005 C 317.441182 409.002005 408.998474 317.444713 408.998474 204.502005 C 408.998474 91.559296 317.441182 0.00200454 204.498473 0.00200454 Z M 204.498473 0.00200454 " transform="matrix(0.75,0,0,0.75,61.895676,10.435997)"/></g></g><g style="fill:#000000;fill-opacity:1;"><g transform="translate(331.910929, 194.766095)"><path style="stroke:none" d="M -239.671875 148.90625 L -323.53125 36.796875 L -310.546875 27.078125 L -46.015625 -26.328125 L -120.5 -125.90625 L -103.625 -138.53125 L -9.71875 -12.984375 L -22.703125 -3.265625 L -286.578125 51 L -222.796875 136.28125 Z M -239.671875 148.90625 "/></g></g></g></svg>